<?xml version="1.0" encoding="utf-8"?>
<!-- Generator: Adobe Illustrator 23.0.3, SVG Export Plug-In . SVG Version: 6.00 Build 0)  -->
<svg version="1.1" id="Layer_1" xmlns="http://www.w3.org/2000/svg" xmlns:xlink="http://www.w3.org/1999/xlink" x="0px" y="0px"
	 viewBox="0 0 143.8 142.7" style="enable-background:new 0 0 143.8 142.7;" xml:space="preserve">
<style type="text/css">
	.st0{fill:#622B87;}
	.st1{fill:#F38DBA;}
	.st2{fill:#F8B7CB;}
	.st3{fill:#FFFFFF;stroke:#231F20;stroke-width:0.5954;stroke-miterlimit:10;}
	.st4{fill:#4359A8;stroke:#4359A8;stroke-width:1.9211;stroke-miterlimit:10;}
	.st5{fill:#4359A8;}
	.st6{fill:none;stroke:#4359A8;stroke-width:1.9211;stroke-miterlimit:10;}
	.st7{fill:#72BF44;}
	.st8{fill:#FFFFFF;}
	.st9{font-family:'Raleway-Bold';}
	.st10{font-size:16px;}
</style>
<circle class="st0" cx="73.7" cy="72.6" r="65.5"/>
<path class="st1" d="M117.6,79.8c0.7-1.6,1.1-3.4,1.1-5.3c0-3.2-1.2-6.2-3.2-8.5c0.1-0.6,0.1-1.2,0.1-1.9c0-10.5-8.5-18.9-18.9-18.9
	h-0.1c-1.6-5.3-6.6-9.1-12.4-9.1c-4.1,0-7.8,1.9-10.1,4.9c-2.4-3-6-4.9-10.1-4.9c-5.9,0-10.8,3.9-12.4,9.2c-0.4,0-0.8,0-1.2,0
	c-10.5,0-18.9,8.5-18.9,18.9c0,10.4,8.4,18.8,18.8,18.9c1.8,7.8,8.8,13.7,17.2,13.7c2.1,0,4.2-0.4,6.1-1.1c1.2,5.2,5.8,9.1,11.3,9.1
	c2.9,0,5.5-1.1,7.6-2.8c2.6,1.5,5.6,2.4,8.8,2.4c9.8,0,17.8-8,17.8-17.8C118.9,84.1,118.5,81.9,117.6,79.8z"/>
<path class="st2" d="M114.5,85.6c0.5-1.7,0.7-3.5,0.5-5.4c-0.4-3.2-1.9-6-4.1-8.1c0-0.6,0-1.2-0.1-1.9c-1.2-10.4-10.6-17.8-21-16.6
	l-0.1,0c-2.2-5.1-7.6-8.3-13.4-7.7c-4.1,0.5-7.5,2.8-9.5,6c-2.7-2.7-6.5-4.1-10.6-3.7c-5.8,0.7-10.3,5.1-11.3,10.6
	c-0.4,0-0.8,0.1-1.2,0.1c-10.4,1.2-17.8,10.6-16.6,21c1.2,10.3,10.5,17.8,20.8,16.7c2.7,7.6,10.3,12.6,18.6,11.6
	c2.1-0.2,4.1-0.9,5.9-1.8c1.8,5,6.8,8.4,12.3,7.7c2.9-0.3,5.4-1.7,7.2-3.7c2.8,1.2,5.9,1.7,9,1.3c9.8-1.1,16.8-9.9,15.6-19.7
	C116.3,89.8,115.5,87.6,114.5,85.6z"/>
<path class="st3" d="M92.7,100.4"/>
<circle class="st4" cx="26.6" cy="38.4" r="3.9"/>
<circle class="st5" cx="54.5" cy="71.4" r="3.9"/>
<circle class="st4" cx="86.8" cy="32.4" r="3.9"/>
<circle class="st4" cx="96.5" cy="102.7" r="3.9"/>
<circle class="st4" cx="125.7" cy="76.7" r="3.9"/>
<line class="st6" x1="26.4" y1="37.7" x2="54.9" y2="73.6"/>
<line class="st6" x1="55.7" y1="71.1" x2="86.9" y2="31.6"/>
<line class="st6" x1="86.9" y1="31.6" x2="96.4" y2="102"/>
<line class="st6" x1="96.4" y1="102" x2="126.9" y2="75.3"/>
<path id="Rectangle_250" class="st7" d="M17.9,5.5h33c6.1,0,11,4.9,11,11l0,0c0,6.1-4.9,11-11,11h-33c-6.1,0-11-4.9-11-11l0,0
	C6.9,10.5,11.9,5.5,17.9,5.5z"/>
<text transform="matrix(1 0 0 1 14.9382 22.5307)" class="st8 st9 st10">NEW</text>
</svg>
