<?xml version="1.0" encoding="utf-8"?>
<!-- Generator: Adobe Illustrator 23.0.3, SVG Export Plug-In . SVG Version: 6.00 Build 0)  -->
<svg version="1.1" id="Layer_1" xmlns="http://www.w3.org/2000/svg" xmlns:xlink="http://www.w3.org/1999/xlink" x="0px" y="0px"
	 viewBox="0 0 141 140.5" style="enable-background:new 0 0 141 140.5;" xml:space="preserve">
<style type="text/css">
	.st0{fill:#64058E;}
	.st1{fill:#FEE464;}
	.st2{fill:#FFFFFF;}
	.st3{fill:#FBB040;}
	.st4{fill:#ED1C24;}
	.st5{fill:#231F20;}
	.st6{fill:#C49A6C;}
</style>
<circle class="st0" cx="70.2" cy="70.6" r="65.5"/>
<g>
	<path class="st1" d="M103.8,100H32V45.3h82.4v44C109.1,94.7,111.3,92.5,103.8,100z"/>
	<path class="st2" d="M104.7,95.8H38c-1.1,0-2-0.9-2-2v-36c0-1.1,0.9-2,2-2h70.2c1.1,0,2,0.9,2,2v32.5
		C110.2,93.3,107.7,95.8,104.7,95.8z"/>
	<rect x="46.2" y="41.5" class="st3" width="10.6" height="10.6"/>
	<rect x="90.1" y="41.2" class="st3" width="10.6" height="10.6"/>
	<g>
		<path class="st4" d="M63.3,65.2L63.3,65.2c-1.8,0-3.2-1.4-3.2-3.2l0,0c0-1.8,1.4-3.2,3.2-3.2l0,0c1.8,0,3.2,1.4,3.2,3.2l0,0
			C66.4,63.7,65,65.2,63.3,65.2z"/>
		<path class="st4" d="M63.3,74.4L63.3,74.4c-1.8,0-3.2-1.4-3.2-3.2l0,0c0-1.8,1.4-3.2,3.2-3.2l0,0c1.8,0,3.2,1.4,3.2,3.2l0,0
			C66.4,72.9,65,74.4,63.3,74.4z"/>
		<path class="st4" d="M53.8,74.4L53.8,74.4c-1.8,0-3.2-1.4-3.2-3.2l0,0c0-1.8,1.4-3.2,3.2-3.2l0,0c1.8,0,3.2,1.4,3.2,3.2l0,0
			C57,72.9,55.6,74.4,53.8,74.4z"/>
		<path class="st4" d="M53.8,83.6L53.8,83.6c-1.8,0-3.2-1.4-3.2-3.2l0,0c0-1.8,1.4-3.2,3.2-3.2l0,0c1.8,0,3.2,1.4,3.2,3.2l0,0
			C57,82.2,55.6,83.6,53.8,83.6z"/>
		<path class="st4" d="M53.8,92.8L53.8,92.8c-1.8,0-3.2-1.4-3.2-3.2l0,0c0-1.8,1.4-3.2,3.2-3.2l0,0c1.8,0,3.2,1.4,3.2,3.2l0,0
			C57,91.4,55.6,92.8,53.8,92.8z"/>
		<path class="st4" d="M44.4,74.4L44.4,74.4c-1.8,0-3.2-1.4-3.2-3.2l0,0c0-1.8,1.4-3.2,3.2-3.2l0,0c1.8,0,3.2,1.4,3.2,3.2l0,0
			C47.5,72.9,46.1,74.4,44.4,74.4z"/>
		<path class="st4" d="M44.4,83.6L44.4,83.6c-1.8,0-3.2-1.4-3.2-3.2l0,0c0-1.8,1.4-3.2,3.2-3.2l0,0c1.8,0,3.2,1.4,3.2,3.2l0,0
			C47.5,82.2,46.1,83.6,44.4,83.6z"/>
		<path class="st4" d="M44.4,92.8L44.4,92.8c-1.8,0-3.2-1.4-3.2-3.2l0,0c0-1.8,1.4-3.2,3.2-3.2l0,0c1.8,0,3.2,1.4,3.2,3.2l0,0
			C47.5,91.4,46.1,92.8,44.4,92.8z"/>
		<path class="st4" d="M72.7,74.4L72.7,74.4c-1.8,0-3.2-1.4-3.2-3.2l0,0c0-1.8,1.4-3.2,3.2-3.2l0,0c1.8,0,3.2,1.4,3.2,3.2l0,0
			C75.9,72.9,74.5,74.4,72.7,74.4z"/>
		<path class="st4" d="M82.1,74.4L82.1,74.4c-1.8,0-3.2-1.4-3.2-3.2l0,0c0-1.8,1.4-3.2,3.2-3.2l0,0c1.8,0,3.2,1.4,3.2,3.2l0,0
			C85.3,72.9,83.9,74.4,82.1,74.4z"/>
		<path class="st4" d="M91.6,74.4L91.6,74.4c-1.8,0-3.2-1.4-3.2-3.2l0,0c0-1.8,1.4-3.2,3.2-3.2l0,0c1.8,0,3.2,1.4,3.2,3.2l0,0
			C94.8,72.9,93.3,74.4,91.6,74.4z"/>
		<path class="st4" d="M101,74.4L101,74.4c-1.8,0-3.2-1.4-3.2-3.2l0,0c0-1.8,1.4-3.2,3.2-3.2l0,0c1.8,0,3.2,1.4,3.2,3.2l0,0
			C104.2,72.9,102.8,74.4,101,74.4z"/>
		<path class="st4" d="M63.3,83.6L63.3,83.6c-1.8,0-3.2-1.4-3.2-3.2l0,0c0-1.8,1.4-3.2,3.2-3.2l0,0c1.8,0,3.2,1.4,3.2,3.2l0,0
			C66.4,82.2,65,83.6,63.3,83.6z"/>
		<path class="st4" d="M72.7,83.6L72.7,83.6c-1.8,0-3.2-1.4-3.2-3.2l0,0c0-1.8,1.4-3.2,3.2-3.2l0,0c1.8,0,3.2,1.4,3.2,3.2l0,0
			C75.9,82.2,74.5,83.6,72.7,83.6z"/>
		<path class="st5" d="M82.1,83.6L82.1,83.6c-1.8,0-3.2-1.4-3.2-3.2l0,0c0-1.8,1.4-3.2,3.2-3.2l0,0c1.8,0,3.2,1.4,3.2,3.2l0,0
			C85.3,82.2,83.9,83.6,82.1,83.6z"/>
		<path class="st4" d="M91.6,83.6L91.6,83.6c-1.8,0-3.2-1.4-3.2-3.2l0,0c0-1.8,1.4-3.2,3.2-3.2l0,0c1.8,0,3.2,1.4,3.2,3.2l0,0
			C94.8,82.2,93.3,83.6,91.6,83.6z"/>
		<path class="st4" d="M101,83.6L101,83.6c-1.8,0-3.2-1.4-3.2-3.2l0,0c0-1.8,1.4-3.2,3.2-3.2l0,0c1.8,0,3.2,1.4,3.2,3.2l0,0
			C104.2,82.2,102.8,83.6,101,83.6z"/>
		<path class="st4" d="M63.3,92.8L63.3,92.8c-1.8,0-3.2-1.4-3.2-3.2l0,0c0-1.8,1.4-3.2,3.2-3.2l0,0c1.8,0,3.2,1.4,3.2,3.2l0,0
			C66.4,91.4,65,92.8,63.3,92.8z"/>
		<path class="st4" d="M72.7,92.8L72.7,92.8c-1.8,0-3.2-1.4-3.2-3.2l0,0c0-1.8,1.4-3.2,3.2-3.2l0,0c1.8,0,3.2,1.4,3.2,3.2l0,0
			C75.9,91.4,74.5,92.8,72.7,92.8z"/>
		<path class="st4" d="M82.1,92.8L82.1,92.8c-1.8,0-3.2-1.4-3.2-3.2l0,0c0-1.8,1.4-3.2,3.2-3.2l0,0c1.8,0,3.2,1.4,3.2,3.2l0,0
			C85.3,91.4,83.9,92.8,82.1,92.8z"/>
		<path class="st4" d="M72.7,65.2L72.7,65.2c-1.8,0-3.2-1.4-3.2-3.2l0,0c0-1.8,1.4-3.2,3.2-3.2l0,0c1.8,0,3.2,1.4,3.2,3.2l0,0
			C75.9,63.7,74.5,65.2,72.7,65.2z"/>
		<path class="st4" d="M82.1,65.2L82.1,65.2c-1.8,0-3.2-1.4-3.2-3.2l0,0c0-1.8,1.4-3.2,3.2-3.2l0,0c1.8,0,3.2,1.4,3.2,3.2l0,0
			C85.3,63.7,83.9,65.2,82.1,65.2z"/>
		<path class="st4" d="M91.6,65.2L91.6,65.2c-1.8,0-3.2-1.4-3.2-3.2l0,0c0-1.8,1.4-3.2,3.2-3.2l0,0c1.8,0,3.2,1.4,3.2,3.2l0,0
			C94.8,63.7,93.3,65.2,91.6,65.2z"/>
		<path class="st4" d="M101,65.2L101,65.2c-1.8,0-3.2-1.4-3.2-3.2l0,0c0-1.8,1.4-3.2,3.2-3.2l0,0c1.8,0,3.2,1.4,3.2,3.2l0,0
			C104.2,63.7,102.8,65.2,101,65.2z"/>
	</g>
	<polygon class="st6" points="109.1,94.7 103.8,100 103.9,94.8 104,89.6 109.2,89.5 114.5,89.3 	"/>
</g>
</svg>
