<?xml version="1.0" encoding="utf-8"?>
<!-- Generator: Adobe Illustrator 23.0.3, SVG Export Plug-In . SVG Version: 6.00 Build 0)  -->
<svg version="1.1" id="Layer_1" xmlns="http://www.w3.org/2000/svg" xmlns:xlink="http://www.w3.org/1999/xlink" x="0px" y="0px"
	 viewBox="0 0 595.28 841.89" style="enable-background:new 0 0 595.28 841.89;" xml:space="preserve">
<style type="text/css">
	.st0{fill:#64058E;}
	.st1{opacity:0.4;}
	.st2{fill:#231F20;}
	.st3{fill:#FFF6D8;}
	.st4{fill:#C49A6C;}
	.st5{fill:#FFFFFF;}
	.st6{fill:none;stroke:#231F20;stroke-width:0.8406;stroke-miterlimit:10;}
</style>
<circle class="st0" cx="283.63" cy="401.93" r="51.57"/>
<g class="st1">
	<path class="st2" d="M313.41,423.32c0,6.18-4.18,11.2-9.33,11.2c-1.75,0-9.49,0-12.32,0c-2.12,0-9.97,0-12.28,0
		c-3.09,0-11.41,0-13.16,0c-5.15,0-9.33-5.01-9.33-11.2c0-5.89,3.79-10.72,8.6-11.17c2.08-6.76,7.49-11.57,13.84-11.57
		c5.76,0,8.31,2.29,11.01,5.92c0.43-0.06,0.87-0.08,1.31-0.08c4.09,0,7.71,2.39,9.95,6.07c0.76-0.24,1.55-0.36,2.37-0.36
		C309.23,412.12,313.41,417.14,313.41,423.32z"/>
</g>
<path class="st3" d="M298.89,412.48h-31.78v-40.92h24.07c4.37,4.37,4.37,4.37,7.71,7.71V412.48z"/>
<polygon class="st4" points="295.03,375.39 298.89,379.26 295.59,378.69 292.3,378.12 291.73,374.82 291.16,371.52 "/>
<path class="st5" d="M304.08,430.34c-1.75,0-9.49,0-12.32,0c-2.12,0-9.97,0-12.28,0c-3.09,0-11.41,0-13.16,0
	c-4.56,0-8.35-3.92-9.16-9.11c-0.11,0.68-0.16,1.38-0.16,2.09c0,6.18,4.18,11.2,9.33,11.2c1.76,0,10.08,0,13.16,0
	c2.31,0,10.15,0,12.28,0c2.83,0,10.57,0,12.32,0c5.15,0,9.33-5.01,9.33-11.2c0-0.71-0.06-1.41-0.16-2.09
	C312.43,426.42,308.64,430.34,304.08,430.34z"/>
<path class="st5" d="M266.32,430.34c1.76,0,10.08,0,13.16,0c2.31,0,10.15,0,12.28,0c2.83,0,10.57,0,12.32,0
	c4.56,0,8.35-3.92,9.16-9.11c-0.82-5.19-4.61-9.11-9.16-9.11c-0.82,0-1.61,0.13-2.37,0.36c-0.8-1.32-1.78-2.46-2.9-3.4v4.67v-4.67
	c-2-1.68-4.43-2.67-7.05-2.67c-0.44,0-0.88,0.03-1.31,0.08c-2.7-3.64-5.25-5.92-11.01-5.92c-5.26,0-9.87,3.3-12.48,8.27v1.77v-1.77
	c-0.54,1.03-1,2.14-1.36,3.3c-4.23,0.39-7.67,4.17-8.44,9.07C257.98,426.42,261.77,430.34,266.32,430.34z"/>
<line class="st6" x1="271.66" y1="381.92" x2="294.33" y2="381.92"/>
<line class="st6" x1="271.66" y1="385.88" x2="294.33" y2="385.88"/>
<line class="st6" x1="271.66" y1="389.92" x2="294.33" y2="389.92"/>
<line class="st6" x1="271.66" y1="393.96" x2="294.33" y2="393.96"/>
<line class="st6" x1="271.66" y1="398" x2="294.33" y2="398"/>
</svg>
