<?xml version="1.0" encoding="utf-8"?>
<!-- Generator: Adobe Illustrator 23.0.3, SVG Export Plug-In . SVG Version: 6.00 Build 0)  -->
<svg version="1.1" id="Layer_1" xmlns="http://www.w3.org/2000/svg" xmlns:xlink="http://www.w3.org/1999/xlink" x="0px" y="0px"
	 viewBox="0 0 295 183.19" style="enable-background:new 0 0 295 183.19;" xml:space="preserve">
<style type="text/css">
	.st0{fill:none;}
	.st1{enable-background:new    ;}
	.st2{fill:#662D91;}
	.st3{fill:#00AB95;}
	.st4{fill:#662F90;}
</style>
<g>
	<rect x="11.68" y="8.19" class="st0" width="272.97" height="175"/>
</g>
<g class="st1">
	<path class="st2" d="M63.37,11.77h25.67l12.24,38.59l12.24-38.59h25.84l-20.23,56.1l12.24,32.47l30.26-88.74h30.43l-48.28,120.7
		h-23.29l-19.21-47.26L82.24,132.3H58.78L10.67,11.6h30.26l30.43,88.74l11.9-32.47L63.37,11.77z"/>
</g>
<g>
	<rect x="135.37" y="52.93" class="st0" width="159.63" height="130.26"/>
</g>
<g class="st1">
	<path class="st3" d="M146.93,177.03V56.33h81.94v24.48h-54.06v26.01h44.54v22.61h-44.54v47.6H146.93z"/>
</g>
<g>
	<rect x="193.92" y="18.72" class="st0" width="69.77" height="68.42"/>
</g>
<g class="st1">
	<path class="st4" d="M206.04,48.32c-1.71,0-3.24-0.29-4.6-0.88c-1.36-0.59-2.51-1.38-3.46-2.38c-0.95-1-1.67-2.15-2.18-3.46
		c-0.51-1.31-0.76-2.68-0.76-4.12c0-1.47,0.25-2.85,0.76-4.16c0.51-1.31,1.23-2.46,2.18-3.46c0.95-1,2.1-1.79,3.46-2.38
		c1.36-0.59,2.89-0.88,4.6-0.88c1.71,0,3.23,0.29,4.58,0.88c1.35,0.59,2.49,1.38,3.44,2.38c0.95,1,1.67,2.15,2.18,3.46
		c0.51,1.31,0.76,2.69,0.76,4.16c0,1.44-0.25,2.81-0.76,4.12c-0.51,1.31-1.23,2.46-2.16,3.46c-0.93,1-2.08,1.79-3.44,2.38
		C209.28,48.03,207.75,48.32,206.04,48.32z M200.56,37.48c0,0.93,0.14,1.78,0.42,2.54c0.28,0.76,0.67,1.42,1.16,1.98
		c0.49,0.56,1.07,0.99,1.74,1.3c0.67,0.31,1.39,0.46,2.16,0.46c0.77,0,1.49-0.15,2.16-0.46c0.67-0.31,1.25-0.74,1.74-1.3
		c0.49-0.56,0.88-1.23,1.16-2c0.28-0.77,0.42-1.63,0.42-2.56c0-0.91-0.14-1.75-0.42-2.52c-0.28-0.77-0.67-1.44-1.16-2
		c-0.49-0.56-1.07-0.99-1.74-1.3s-1.39-0.46-2.16-0.46c-0.77,0-1.49,0.16-2.16,0.48c-0.67,0.32-1.25,0.76-1.74,1.32
		c-0.49,0.56-0.88,1.23-1.16,2C200.7,35.74,200.56,36.58,200.56,37.48z"/>
	<path class="st4" d="M233.08,31.6c-1.63,0.03-3.08,0.34-4.36,0.94c-1.28,0.6-2.2,1.5-2.76,2.7v12.68h-5.36V26.96h4.92v4.48
		c0.37-0.72,0.81-1.37,1.32-1.94c0.51-0.57,1.05-1.07,1.64-1.5c0.59-0.43,1.18-0.75,1.78-0.98c0.6-0.23,1.18-0.34,1.74-0.34
		c0.29,0,0.51,0,0.66,0c0.15,0,0.29,0.01,0.42,0.04V31.6z"/>
	<path class="st4" d="M250.4,47.92l-6.08-9.08l-2.88,2.84v6.24h-5.36v-29.2h5.36v17.72l8.4-9.44h5.72l-7.8,8.88l8.36,12.04H250.4z"
		/>
</g>
<g>
	<rect x="226.13" y="114.77" class="st0" width="62.87" height="68.42"/>
</g>
<g class="st1">
	<path class="st3" d="M228.53,114.78h5.36v22.48c0,0.77,0.19,1.37,0.56,1.8s0.91,0.64,1.6,0.64c0.32,0,0.67-0.05,1.06-0.16
		c0.39-0.11,0.75-0.24,1.1-0.4l0.72,4.08c-0.72,0.35-1.56,0.61-2.52,0.8c-0.96,0.19-1.83,0.28-2.6,0.28c-1.68,0-2.98-0.45-3.9-1.34
		c-0.92-0.89-1.38-2.17-1.38-3.82V114.78z"/>
	<path class="st3" d="M247.65,144.38c-2.16,0-3.8-0.69-4.92-2.08s-1.68-3.44-1.68-6.16v-13.12h5.36v11.96
		c0,3.23,1.16,4.84,3.48,4.84c1.04,0,2.05-0.31,3.02-0.94s1.77-1.58,2.38-2.86v-13h5.36v14.8c0,0.56,0.1,0.96,0.3,1.2
		s0.53,0.37,0.98,0.4v4.56c-0.53,0.11-0.98,0.17-1.34,0.2c-0.36,0.03-0.69,0.04-0.98,0.04c-0.96,0-1.74-0.22-2.34-0.66
		c-0.6-0.44-0.95-1.05-1.06-1.82l-0.12-1.68c-0.93,1.44-2.13,2.52-3.6,3.24C251.03,144.02,249.41,144.38,247.65,144.38z"/>
	<path class="st3" d="M269.29,123.02l4.52,6.56l0.32,0.72l0.4-0.72l4.48-6.56h5.52l-7.48,10.52l7.6,10.44h-5.52l-4.64-6.52
		l-0.36-0.68l-0.32,0.68l-4.6,6.52h-5.52l7.56-10.44l-7.44-10.52H269.29z"/>
</g>
</svg>
