<?xml version="1.0" encoding="utf-8"?>
<!-- Generator: Adobe Illustrator 23.0.3, SVG Export Plug-In . SVG Version: 6.00 Build 0)  -->
<svg version="1.1" id="Layer_1" xmlns="http://www.w3.org/2000/svg" xmlns:xlink="http://www.w3.org/1999/xlink" x="0px" y="0px"
	 viewBox="0 0 295 183.2" style="enable-background:new 0 0 295 183.2;" xml:space="preserve">
<style type="text/css">
	.st0{fill:none;}
	.st1{enable-background:new    ;}
	.st2{fill:#FFFFFF;}
</style>
<g>
	<rect x="11.7" y="8.2" class="st0" width="273" height="175"/>
</g>
<g class="st1">
	<path class="st2" d="M63.4,11.8H89l12.2,38.6l12.2-38.6h25.8l-20.2,56.1l12.2,32.5l30.3-88.7h30.4l-48.3,120.7h-23.3L101.3,85
		l-19,47.3H58.8L10.7,11.6h30.3l30.4,88.7l11.9-32.5L63.4,11.8z"/>
</g>
<g>
	<rect x="135.4" y="52.9" class="st0" width="159.6" height="130.3"/>
</g>
<g class="st1">
	<path class="st2" d="M146.9,177V56.3h81.9v24.5h-54.1v26h44.5v22.6h-44.5V177H146.9z"/>
</g>
<g>
	<rect x="193.9" y="18.7" class="st0" width="69.8" height="68.4"/>
</g>
<g class="st1">
	<path class="st2" d="M206,48.3c-1.7,0-3.2-0.3-4.6-0.9s-2.5-1.4-3.5-2.4c-0.9-1-1.7-2.2-2.2-3.5c-0.5-1.3-0.8-2.7-0.8-4.1
		c0-1.5,0.2-2.8,0.8-4.2s1.2-2.5,2.2-3.5s2.1-1.8,3.5-2.4s2.9-0.9,4.6-0.9s3.2,0.3,4.6,0.9c1.4,0.6,2.5,1.4,3.4,2.4
		c0.9,1,1.7,2.2,2.2,3.5c0.5,1.3,0.8,2.7,0.8,4.2c0,1.4-0.2,2.8-0.8,4.1c-0.5,1.3-1.2,2.5-2.2,3.5c-0.9,1-2.1,1.8-3.4,2.4
		C209.3,48,207.8,48.3,206,48.3z M200.6,37.5c0,0.9,0.1,1.8,0.4,2.5c0.3,0.8,0.7,1.4,1.2,2s1.1,1,1.7,1.3c0.7,0.3,1.4,0.5,2.2,0.5
		s1.5-0.2,2.2-0.5c0.7-0.3,1.2-0.7,1.7-1.3c0.5-0.6,0.9-1.2,1.2-2s0.4-1.6,0.4-2.6c0-0.9-0.1-1.8-0.4-2.5s-0.7-1.4-1.2-2
		s-1.1-1-1.7-1.3s-1.4-0.5-2.2-0.5s-1.5,0.2-2.2,0.5s-1.2,0.8-1.7,1.3s-0.9,1.2-1.2,2C200.7,35.7,200.6,36.6,200.6,37.5z"/>
	<path class="st2" d="M233.1,31.6c-1.6,0-3.1,0.3-4.4,0.9c-1.3,0.6-2.2,1.5-2.8,2.7v12.7h-5.4V27h4.9v4.5c0.4-0.7,0.8-1.4,1.3-1.9
		c0.5-0.6,1.1-1.1,1.6-1.5s1.2-0.8,1.8-1s1.2-0.3,1.7-0.3c0.3,0,0.5,0,0.7,0c0.1,0,0.3,0,0.4,0L233.1,31.6L233.1,31.6z"/>
	<path class="st2" d="M250.4,47.9l-6.1-9.1l-2.9,2.8v6.2h-5.4V18.7h5.4v17.7l8.4-9.4h5.7l-7.8,8.9l8.4,12H250.4z"/>
</g>
<g>
	<rect x="226.1" y="114.8" class="st0" width="62.9" height="68.4"/>
</g>
<g class="st1">
	<path class="st2" d="M228.5,114.8h5.4v22.5c0,0.8,0.2,1.4,0.6,1.8s0.9,0.6,1.6,0.6c0.3,0,0.7-0.1,1.1-0.2s0.8-0.2,1.1-0.4l0.7,4.1
		c-0.7,0.4-1.6,0.6-2.5,0.8s-1.8,0.3-2.6,0.3c-1.7,0-3-0.4-3.9-1.3s-1.4-2.2-1.4-3.8V114.8z"/>
	<path class="st2" d="M247.6,144.4c-2.2,0-3.8-0.7-4.9-2.1s-1.7-3.4-1.7-6.2V123h5.4v12c0,3.2,1.2,4.8,3.5,4.8c1,0,2.1-0.3,3-0.9
		s1.8-1.6,2.4-2.9v-13h5.4v14.8c0,0.6,0.1,1,0.3,1.2s0.5,0.4,1,0.4v4.6c-0.5,0.1-1,0.2-1.3,0.2s-0.7,0-1,0c-1,0-1.7-0.2-2.3-0.7
		s-1-1.1-1.1-1.8l-0.1-1.7c-0.9,1.4-2.1,2.5-3.6,3.2C251,144,249.4,144.4,247.6,144.4z"/>
	<path class="st2" d="M269.3,123l4.5,6.6l0.3,0.7l0.4-0.7l4.5-6.6h5.5l-7.5,10.5l7.6,10.4h-5.5l-4.6-6.5l-0.4-0.7l-0.3,0.7l-4.6,6.5
		h-5.5l7.6-10.4l-7.4-10.5C263.8,123,269.3,123,269.3,123z"/>
</g>
</svg>
